<svg xmlns="http://www.w3.org/2000/svg" width="153.118" height="56" viewBox="0 0 153.118 56"><g transform="translate(1419.991 -1289.767)"><g transform="translate(-1419.991 1289.767)"><path d="M-1386.211,1310.429v8.975l-12.18-29.095-.592-.542h-8.284l-.592.542-12.131,29.144v5.277l.592.542h6.016l.592-.592h0l2.071-5.424.986-.493h13.364l.986.493,2.071,5.424h0l.592.592h5.967l.592-.592v.592h3.205l.592-.592v-5.227Zm-12.871.838h-7.939l-.394-.395,4.093-10.651h.493l4.142,10.651Z" transform="translate(1419.991 -1289.767)" fill="#333"/><g transform="translate(84.178 0)"><path d="M-973.609,1382.347h3.205l.592-.542v-5.276l-3.8-9.024Z" transform="translate(1008.079 -1346.841)" fill="#333"/><path d="M-1090.669,1310.873l4.093-10.651h.493l4.142,10.651-.395.395h-7.939Zm.148-21.106-.592.542-12.18,29.095v5.276l.641.592h6.016l.592-.592h0l2.071-5.424.986-.493h13.364l.986.493,2.071,5.424h0l.542.592h5.967l.592-.592v-5.227l-12.18-29.095-.542-.592Z" transform="translate(1103.293 -1289.767)" fill="#333"/></g><g transform="translate(116.872 0)"><path d="M-858.21,1289.767v10.75l3.8-6.509v-3.7l-.592-.542Z" transform="translate(890.658 -1289.767)" fill="#333"/><path d="M-955.532,1289.767l-.592.592-7.989,14.4h-.641l-8.137-14.449-.542-.542H-979.7l-.592.592v3.748l11.293,20.12v10.5l.592.542h7.742l.592-.542v-10.6l11.589-20.12v-3.649l-.592-.592Z" transform="translate(980.288 -1289.767)" fill="#333"/></g><g transform="translate(36.886 0)"><path d="M-1273.128,1325.273h8.482l.592-.542,5.671-20.81h.3l5.622,20.81.592.542h8.531l.592-.542,7.5-26.383v-7.989l-.542-.592h-5.622l-.542.592-5.868,21.155h-.345l-5.77-21.155-.592-.592h-7.5l-.542.592-5.77,21.155h-.345l-5.868-21.2-.592-.542h-5.523l-.542.592v7.939l7.5,26.432Z" transform="translate(1281.215 -1289.767)" fill="#333"/><path d="M-1102.6,1290.359l-.542-.592h-2.564V1309.3l3.107-11Z" transform="translate(1152.355 -1289.767)" fill="#333"/></g></g><path d="M-1076.812,1460.454h1.97l-3.592,10.632h-1.97Z" transform="translate(-249.325 -125.319)" fill="#333"/><path d="M-1321.573,1461.085h3.891a4.8,4.8,0,0,1,5.2,5.148,4.8,4.8,0,0,1-5.2,5.148h-3.891Zm3.757,7.965a2.519,2.519,0,0,0,2.666-2.817,2.525,2.525,0,0,0-2.666-2.834h-1.107v5.651Z" transform="translate(-72.259 -125.782)" fill="#333"/><path d="M-1278.241,1471.381h-2.7v-10.3h2.7Z" transform="translate(-102.091 -125.782)" fill="#333"/><path d="M-1258.835,1467.43v-2.012h4.259v1.023a4.357,4.357,0,0,1-4.612,4.645,4.991,4.991,0,0,1-5.1-5.316,4.983,4.983,0,0,1,5.065-5.316,4.27,4.27,0,0,1,4.561,3.622h-2.75a1.752,1.752,0,0,0-1.811-1.258c-1.493,0-2.348,1.241-2.348,2.951,0,1.761.906,2.951,2.381,2.951a1.874,1.874,0,0,0,1.945-1.291Z" transform="translate(-114.32 -125.319)" fill="#333"/><path d="M-1218.556,1471.381h-2.7v-10.3h2.7Z" transform="translate(-145.912 -125.782)" fill="#333"/><path d="M-1204.726,1461.085h9.056v2.314h-3.186v7.982h-2.7V1463.4h-3.169Z" transform="translate(-158.048 -125.782)" fill="#333"/><path d="M-1164.235,1461.085l3.924,10.3h-2.734l-.738-2h-3.74l-.721,2h-2.667l3.924-10.3Zm-2.465,6.087h2.113l-1.057-2.9Z" transform="translate(-182.876 -125.782)" fill="#333"/><path d="M-1125.482,1461.085h2.7v7.965h4.612v2.331h-7.312Z" transform="translate(-216.229 -125.782)" fill="#333"/><path d="M-1041.908,1461.085h9.055v2.314h-3.186v7.982h-2.7V1463.4h-3.169Z" transform="translate(-277.589 -125.782)" fill="#2ec4b6"/><path d="M-994.1,1461.085v2.314h-4.712v1.61h4.31v2.264h-4.31v1.777h4.712v2.331h-7.362v-10.3Z" transform="translate(-307.282 -125.782)" fill="#2ec4b6"/><path d="M-962.3,1461.085l3.924,10.3h-2.734l-.738-2h-3.74l-.721,2h-2.667l3.924-10.3Zm-2.465,6.087h2.113l-1.057-2.9Z" transform="translate(-331.137 -125.782)" fill="#2ec4b6"/><path d="M-918.885,1471.381l-2.147-6.121v6.121h-2.516v-10.3h3.287l2.264,6.406,2.247-6.406h3.27v10.3h-2.532v-6.121l-2.13,6.121Z" transform="translate(-364.49 -125.782)" fill="#2ec4b6"/><path d="M-873.238,1467.866a1.563,1.563,0,0,0,1.66,1.056c.822,0,1.392-.352,1.392-.989,0-.486-.318-.7-.973-.855l-1.979-.419c-1.509-.335-2.649-1.124-2.649-2.867,0-2.012,1.677-3.337,3.957-3.337,2.516,0,3.941,1.375,4.226,3.152h-2.633a1.531,1.531,0,0,0-1.576-1.006c-.771,0-1.291.335-1.291.906,0,.453.318.7.855.822l2.012.47c1.761.419,2.733,1.375,2.733,2.968,0,2.113-1.777,3.32-4.025,3.32-2.465,0-4.142-1.191-4.511-3.22Z" transform="translate(-399.371 -125.319)" fill="#2ec4b6"/></g></svg>